<?xml version="1.0" encoding="UTF-8"?>
<svg id="Layer_2" data-name="Layer 2" xmlns="http://www.w3.org/2000/svg" viewBox="0 0 222.85 104.48">
  <defs>
    <style>
      .cls-1 {
        fill: #f3e6ff;
      }

      .cls-2 {
        fill: #f9a846;
      }

      .cls-3 {
        fill: #000201;
      }

      .cls-4 {
        fill: #e64058;
      }

      .cls-5 {
        fill: #fff;
      }

      .cls-6 {
        fill: #ffd297;
      }

      .cls-7 {
        fill: #fc9aad;
      }

      .cls-8 {
        fill: #97a8bf;
      }

      .cls-9 {
        fill: #8ba7c6;
      }

      .cls-10 {
        fill: #c40633;
      }

      .cls-11 {
        fill: #334e59;
      }

      .cls-12 {
        fill: #cfabf4;
      }

      .cls-13 {
        fill: #abbcd3;
      }

      .cls-14 {
        fill: #b263e5;
      }

      .cls-15 {
        fill: #dce6ef;
      }

      .cls-16 {
        fill: #ce0229;
      }

      .cls-17 {
        fill: #d6032b;
      }

      .cls-18 {
        fill: #e0e3e8;
      }

      .cls-19 {
        fill: #536b77;
      }

      .cls-20 {
        fill: #263f47;
      }

      .cls-21 {
        fill: #314c56;
      }
    </style>
  </defs>
  <g id="Layer_1-2" data-name="Layer 1">
    <g id="Layer_2-3" data-name="Layer 2-3">
      <g id="Layer_1-2" data-name="Layer 1-2">
        <rect class="cls-4" x="152.46" y="53.16" width="89.78" height="5.27" transform="translate(60.72 208.74) rotate(-64.01)"/>
        <path class="cls-7" d="M190.9,66.24h0c-.27,.03-.52-.17-.55-.44-.02-.18,.06-.35,.2-.46l7.29-15.07c.22-.18,.53-.18,.75,0,.2,.21,.2,.54,0,.75l-7.39,15.37c-.11-.02-.22-.07-.3-.15Z"/>
        <path class="cls-7" d="M187.14,74.02h0c-.27-.13-.39-.46-.26-.73,0,0,0,0,0,0h0l2.76-5.73c.14-.28,.46-.41,.75-.3,.2,.21,.2,.54,0,.75l-2.76,5.78c-.11,.16-.3,.25-.49,.24Z"/>
        <rect class="cls-4" x="155.36" y="54.59" width="89.78" height="5.27" transform="translate(61.06 212.15) rotate(-64.01)"/>
        <rect class="cls-17" x="156.56" y="56.53" width="89.78" height="2.61" transform="translate(61.19 213.57) rotate(-64.01)"/>
        <path class="cls-3" d="M182.97,99.25h-.25l-4.73-2.31c-.14-.05-.25-.16-.3-.3-.05-.13-.05-.28,0-.41L217.08,15.5c.03-.27,.28-.47,.55-.44h.15l4.77,2.31c.13,.06,.22,.17,.26,.3,.05,.13,.05,.27,0,.4l-39.34,80.88c-.1,.19-.29,.3-.5,.3Zm-4-3.12l3.75,1.89L221.55,18.3l-3.77-1.81-38.81,79.64Z"/>
        <polygon class="cls-4" points="209.39 32.63 205.12 35.8 184.58 7.82 188.8 4.65 209.39 32.63"/>
        <polygon class="cls-10" points="209.39 32.63 207.28 34.19 186.69 6.21 188.8 4.65 209.39 32.63"/>
        <path class="cls-3" d="M205.12,36.35h0c-.11,.05-.24,.05-.35,0l-20.57-27.98c-.2-.19-.2-.51,0-.71,0,0,0,0,0,0h0l4.27-3.11c.12-.07,.28-.07,.4,0,.12-.04,.24-.04,.36,0l20.54,28c.19,.2,.19,.51,0,.71h0l-4.12,3c-.15,.12-.35,.15-.53,.09Zm-19.59-28.43l20.09,27.1,3.42-2.51-20.09-27.06-3.42,2.47Z"/>
        <path class="cls-4" d="M191.46,3.95h0c1.15,1.56,.81,3.76-.75,4.91,0,0,0,0,0,0-.05,.04-.1,.08-.16,.11l-6.18,4.27-3.86-6,6-4.27c1.6-1.1,3.79-.69,4.89,.91l.06,.07Z"/>
        <path class="cls-10" d="M190.55,8.92l-6.23,4.27-1.45-2.17,6-4.17c1.3-.88,1.83-2.53,1.3-4,.52,.25,.97,.63,1.31,1.11,1.06,1.64,.65,3.82-.93,4.96Z"/>
        <path class="cls-3" d="M184.37,13.49c-.11,.06-.24,.06-.35,0l-4.07-5.93c-.04-.1-.04-.2,0-.3-.05-.09-.05-.21,0-.3l3-2c.16-.15,.4-.15,.56,0h0c.18,.17,.18,.46,0,.64,0,0,0,0,0,0h0l-2.56,1.75,3.51,5,6.08-4c1.18-1.26,1.12-3.23-.14-4.41-.91-.85-2.23-1.08-3.37-.59l-1.51,.91c-.17,.18-.46,.18-.64,0,0,0,0,0,0,0h0c-.17-.18-.17-.46,0-.64h0l1.45-1c1.82-1.26,4.32-.81,5.59,1.01,1.26,1.82,.81,4.32-1.01,5.59h0l-6.22,4.27h-.31Z"/>
        <rect class="cls-17" x="153.71" y="55.12" width="89.78" height="2.61" transform="translate(60.85 210.22) rotate(-64.01)"/>
        <path class="cls-3" d="M180.1,97.84h-.25l-4.72-2.36c-.19-.19-.19-.51,0-.7l6.83-14.37c.05-.3,.33-.51,.63-.47,.3,.05,.51,.33,.47,.63-.02,.11-.07,.21-.14,.29l-6.84,14.07,3.77,1.86L218.69,16.86l-3.77-1.76-13.52,27.73c-.06,.26-.32,.42-.58,.35s-.42-.32-.35-.58c.03-.11,.09-.21,.18-.27l13.55-28.23c.04-.15,.15-.26,.3-.31,.12-.07,.28-.07,.4,0l4.72,2.31c.26,.1,.38,.4,.27,.65,0,0,0,0,0,0v.05l-39.38,80.73c-.05,.14-.16,.26-.31,.3h-.1Z"/>
        <path class="cls-3" d="M184.47,76.79h0c-.25-.13-.36-.44-.25-.7l14.37-29.39c.19-.19,.51-.19,.7,0,.26,.11,.38,.4,.28,.66h0l-14.37,29.43c-.21,.18-.52,.18-.73,0Z"/>
        <circle class="cls-4" cx="208.49" cy="35.3" r="8.09"/>
        <circle class="cls-4" cx="208.49" cy="35.3" r="4.92"/>
        <path class="cls-16" d="M208.49,43.08c-4.27-.07-7.68-3.59-7.61-7.87,.03-1.86,.73-3.65,1.98-5.04,1.38-1.5,3.3-2.39,5.34-2.46h0c4.29,.38,7.45,4.16,7.08,8.44-.33,3.76-3.31,6.75-7.08,7.08l.29-.15Zm0-14.52c-1.89-.03-3.7,.74-5,2.11-2.47,2.81-2.19,7.1,.62,9.57,2.81,2.47,7.1,2.19,9.57-.62,2.43-2.76,2.21-6.95-.49-9.45-1.32-1.09-2.99-1.67-4.7-1.61Z"/>
        <path class="cls-17" d="M205.32,38.66c-1.82-1.83-1.82-4.78,0-6.6,1.83-1.82,4.78-1.82,6.6,0,1.82,1.82,1.82,4.78,0,6.6h0c-1.82,1.83-4.78,1.83-6.6,0,0,0,0,0,0,0Zm5.33-5.83c-1.38-1.25-3.51-1.14-4.76,.24-1.25,1.38-1.14,3.51,.24,4.76,1.28,1.16,3.24,1.16,4.52,0,1.39-1.28,1.47-3.44,.19-4.83l-.19-.17Z"/>
        <path class="cls-3" d="M208.49,40.57c-2.76,0-5-2.24-5-5-.07-1.42,.46-2.81,1.46-3.82,.91-.92,2.13-1.47,3.42-1.56h0c1.35-.02,2.65,.51,3.61,1.46,1.02,.96,1.61,2.28,1.66,3.67,.05,1.38-.47,2.72-1.44,3.7-.94,1.04-2.27,1.65-3.67,1.66l-.04-.11Zm0-10h0c-2.53,.06-4.53,2.16-4.47,4.69,.03,1.24,.56,2.41,1.47,3.25,.86,.81,1.99,1.26,3.17,1.26h0c1.22-.05,2.37-.57,3.21-1.46h0c.79-.83,1.24-1.92,1.26-3.06-.02-1.24-.56-2.41-1.48-3.23-.84-.83-1.98-1.28-3.16-1.26v-.19Z"/>
        <path class="cls-3" d="M208.49,43.94c-2.21,.02-4.34-.83-5.93-2.36-3.47-3.27-3.63-8.74-.36-12.21,1.56-1.66,3.72-2.62,6-2.66h0c4.77-.14,8.75,3.61,8.89,8.38v.11c.07,2.29-.78,4.51-2.36,6.17-1.54,1.69-3.71,2.67-6,2.72l-.24-.15Zm0-16.18h0c-2.08,0-4.07,.87-5.48,2.41-2.86,3.04-2.73,7.82,.3,10.7,1.47,1.35,3.39,2.08,5.38,2.06,1.91-.11,3.7-.95,5-2.36,2.88-3,2.78-7.78-.22-10.66-1.42-1.36-3.31-2.11-5.27-2.1l.29-.05Z"/>
        <path class="cls-6" d="M159.1,13.34h0c3.55-4.27,9.88-4.86,14.15-1.32h0c4.29,3.48,4.95,9.77,1.48,14.06,0,.01-.02,.02-.03,.04h0c-3.5,4.31-9.83,4.97-14.14,1.47,0,0,0,0,0,0l-.13-.11h0c-4.27-3.54-4.86-9.88-1.32-14.15h0Z"/>
        <path class="cls-3" d="M167.09,30.17c-5.79,.01-10.49-4.67-10.5-10.46-.01-5.79,4.67-10.49,10.46-10.5,2.45,0,4.83,.85,6.72,2.42,.99,.83,1.81,1.85,2.42,3v.5c-.14,.13-.36,.13-.5,0h0c-.6-1.02-1.36-1.94-2.26-2.71-4.12-3.39-10.2-2.81-13.61,1.3-1.62,1.99-2.41,4.53-2.21,7.09,.23,2.56,1.5,4.92,3.51,6.53,4.09,3.42,10.18,2.87,13.59-1.22,2.03-2.44,2.74-5.72,1.89-8.78-.04-.21,.1-.4,.3-.45,.18-.06,.38,.04,.44,.22h0c1.48,5.57-1.83,11.28-7.4,12.76-.86,.23-1.76,.35-2.65,.35l-.2-.05Z"/>
        <ellipse class="cls-5" cx="166.78" cy="19.38" rx="6.28" ry="6.08" transform="translate(45.79 135.79) rotate(-50.52)"/>
        <circle class="cls-3" cx="199.8" cy="44.64" r=".55"/>
        <circle class="cls-3" cx="183.37" cy="78.5" r=".55"/>
        <path class="cls-4" d="M158.1,7.51c-1.19-1.57-.88-3.8,.69-4.99,0,0,.01,0,.02-.01,.23-.17,.48-.32,.75-.43,9.88-4.14,21.24,.52,25.37,10.4,2.87,6.84,1.58,14.72-3.32,20.29-1.31,1.44-3.54,1.56-5,.26-.2-.18-.38-.39-.54-.61l-17.97-24.91Z"/>
        <path class="cls-10" d="M181.56,33.02c-1.37,1.49-3.68,1.59-5.17,.22,0,0,0,0,0,0-.19-.17-.35-.36-.5-.56l-1.45-2.06c7.78-7.35,8.12-19.61,.77-27.38-.32-.34-.66-.67-1-.99,3.42,1.34,6.39,3.65,8.54,6.63,5.25,7.35,4.76,17.35-1.18,24.15Z"/>
        <path class="cls-3" d="M179.2,34.44h0c-1.26-.07-2.42-.69-3.17-1.71l-11.55-16.07c-.17-.19-.16-.49,.03-.66,.19-.17,.49-.16,.66,.03,.02,.02,.04,.04,.05,.07l11.56,16.08c.57,.8,1.48,1.28,2.46,1.31,.92,.12,1.84-.26,2.41-1,6.9-7.87,6.1-19.85-1.77-26.74-3.2-2.8-7.25-4.45-11.49-4.67-.26-.02-.46-.24-.45-.5-.1-.2-.01-.44,.18-.53,.02-.01,.04-.02,.07-.03,.08-.03,.16-.03,.24,0h0c11.05,.89,19.3,10.57,18.41,21.62-.34,4.19-1.98,8.17-4.7,11.38-.74,.87-1.81,1.38-2.95,1.42Z"/>
        <path class="cls-3" d="M161.92,13.02c-.11,.05-.24,.05-.35,0l-3.67-5c-.75-1.03-.97-2.35-.6-3.57,.31-1.16,1.15-2.11,2.26-2.56,1.51-.65,3.1-1.11,4.72-1.36,.21-.05,.43,.08,.49,.29,0,.04,0,.07,0,.11,.06,.21-.06,.42-.27,.48,0,0-.02,0-.02,0h-.06c-1.55,.25-3.07,.69-4.52,1.3-.86,.36-1.49,1.1-1.71,2-.29,.94-.12,1.96,.45,2.76l3.67,5c.18,.17,.18,.46,0,.64,0,0,0,0,0,0h0l-.39-.1Z"/>
        <circle class="cls-10" cx="178.14" cy="23.99" r="1"/>
        <circle class="cls-10" cx="179.1" cy="21.93" r=".25"/>
        <circle class="cls-10" cx="178.8" cy="20.17" r=".4"/>
        <circle class="cls-10" cx="176.84" cy="26.81" r=".55"/>
        <circle class="cls-10" cx="178.19" cy="25.85" r=".25"/>
        <circle class="cls-10" cx="179.25" cy="18.32" r=".65"/>
        <circle class="cls-10" cx="179.85" cy="21.03" r=".45"/>
        <circle class="cls-10" cx="186.99" cy="7.97" r=".65"/>
        <circle class="cls-10" cx="188.24" cy="6.96" r=".2"/>
        <circle class="cls-10" cx="188.64" cy="5.81" r=".25"/>
        <circle class="cls-10" cx="185.28" cy="9.27" r=".4"/>
        <circle class="cls-10" cx="186.43" cy="9.07" r=".15"/>
        <circle class="cls-10" cx="189.55" cy="4.8" r=".45"/>
        <circle class="cls-10" cx="189" cy="6.66" r=".3"/>
        <circle class="cls-3" cx="163.42" cy="14.45" r=".55"/>
        <circle class="cls-3" cx="166.44" cy=".58" r=".55"/>
        <rect class="cls-13" x="171.16" y="91.21" width="22" height="12.41"/>
        <path class="cls-3" d="M192.86,104.02h-22c-.22,0-.4-.18-.4-.4h0v-12.41c-.03-.19,.1-.37,.29-.4,.04,0,.07,0,.11,0h22c.19-.04,.37,.09,.41,.28,0,0,0,0,0,.01v12.52c0,.22-.18,.4-.4,.4,0,0,0,0-.01,0Zm-21.55-.8h21.2v-11.61h-21.2v11.61Z"/>
        <rect class="cls-18" x="169.25" y="91.21" width="20.9" height="12.41"/>
        <rect class="cls-21" x="111.18" y="87.59" width="9.7" height="8.64"/>
        <path class="cls-3" d="M120.87,96.64h-9.67c-.19,0-.35-.16-.35-.35,0,0,0,0,0-.01v-8.69c0-.19,.16-.35,.35-.35h9.69c.19,0,.35,.16,.35,.35h0v8.69c0,.19-.15,.35-.34,.36,0,0,0,0-.01,0h-.02Zm-9.34-.76h8.94v-7.94h-8.94v7.94Z"/>
        <rect class="cls-21" x="112.08" y="87.59" width="9.7" height="8.64"/>
        <path class="cls-3" d="M121.78,96.64h-9.7c-.19,0-.35-.17-.35-.36v-8.69c0-.19,.16-.35,.35-.35h9.7c.19,0,.35,.16,.35,.35h0v8.69c0,.19-.16,.35-.35,.36Zm-9.35-.76h8.95v-7.94h-8.95v7.94Z"/>
        <rect class="cls-21" x="32.71" y="87.59" width="9.7" height="8.64"/>
        <path class="cls-3" d="M42.35,96.64h-9.64c-.21,0-.38-.15-.41-.36v-8.69c.03-.2,.21-.35,.41-.35h9.64c.2,0,.38,.15,.4,.35v8.69c-.02,.21-.19,.37-.4,.36Zm-9.29-.76h8.94v-7.94h-8.94v7.94Z"/>
        <path class="cls-3" d="M87.82,99.3h-20.1c-.19,0-.35-.16-.35-.35h0c0-.19,.16-.35,.35-.35h20.1c.19,0,.35,.16,.35,.35h0c0,.19-.16,.35-.35,.35h0Z"/>
        <path class="cls-20" d="M12.36,52.88V4.6c0-1.81,1.45-3.29,3.26-3.32h123.44c1.81,.03,3.26,1.51,3.26,3.32V85.43c0,1.8-1.45,3.26-3.25,3.27,0,0,0,0-.01,0H15.62c-1.8,0-3.26-1.46-3.26-3.26,0,0,0,0,0-.01v-12.86"/>
        <path class="cls-3" d="M139.06,89.02H15.62c-2.02-.02-3.68-1.6-3.81-3.62v-12.83c-.03-.27,.17-.52,.44-.55h.11c.3,0,.55,.25,.55,.55h0v12.86c0,1.5,1.21,2.71,2.71,2.72h123.44c1.5,0,2.71-1.21,2.71-2.71,0,0,0,0,0-.01h0V4.6c0-1.5-1.21-2.71-2.71-2.71h-13.86c-.33,0-.6-.27-.6-.6,0,0,0,0,0-.01h0c0-.3,.24-.55,.55-.55,.02,0,.03,0,.05,0h13.92c2.12,.03,3.84,1.75,3.87,3.87V85.43c-.17,2.04-1.88,3.6-3.93,3.59Z"/>
        <path class="cls-3" d="M12.36,53.48c-.31,0-.55-.24-.56-.55h0V4.6c-.03-.27,.17-.52,.44-.55,.04,0,.07,0,.11,0,.3,0,.55,.25,.55,.55h0V52.88c.03,.3-.19,.57-.5,.6,0,0,0,0,0,0h-.04Z"/>
        <path class="cls-3" d="M199.28,104.22h-48.52c-.3,0-.55-.25-.55-.55s.25-.55,.55-.55h48.52c.3,0,.55,.25,.55,.55,0,.3-.25,.55-.55,.55,0,0,0,0,0,0Z"/>
        <rect class="cls-19" x="29.09" y="90.66" width="9.7" height="5.58"/>
        <rect class="cls-19" x="29.09" y="90.66" width="9.7" height="5.58"/>
        <rect class="cls-11" x="29.09" y="89.05" width="9.7" height="2.36"/>
        <path class="cls-3" d="M38.73,96.64h-9.64c-.21,0-.38-.15-.4-.36v-8.69c.02-.2,.2-.36,.4-.35h9.64c.2,0,.38,.15,.41,.35v8.69c-.03,.21-.2,.36-.41,.36Zm-9.29-.76h8.94v-7.94h-8.94v7.94Z"/>
        <rect class="cls-19" x="108.11" y="90.66" width="9.7" height="5.58"/>
        <rect class="cls-19" x="108.11" y="90.66" width="9.7" height="5.58"/>
        <rect class="cls-11" x="108.11" y="89.05" width="9.7" height="2.36"/>
        <path class="cls-3" d="M117.81,96.64h-9.7c-.19,0-.35-.17-.35-.36v-8.69c0-.19,.16-.35,.35-.35h9.7c.19,0,.35,.16,.35,.35h0v8.69c0,.19-.16,.35-.35,.36Zm-9.35-.76h9v-7.94h-9v7.94Z"/>
        <rect class="cls-19" x="7.54" y="1.13" width="130.02" height="87.16" rx="3.32" ry="3.32"/>
        <path class="cls-20" d="M137.55,79.1v5.92c-.02,1.83-1.52,3.3-3.35,3.28H10.85c-1.81,0-3.29-1.47-3.31-3.28v-5.92c-.03,1.8,1.4,3.29,3.2,3.32,0,0,0,0,.01,0h123.45c1.8,.03,3.28-1.41,3.31-3.21,0,0,0,0,0-.01l.04-.1Z"/>
        <path class="cls-3" d="M134.54,89.02H11.1c-2.02-.02-3.68-1.6-3.81-3.62v-12.83c0-.3,.25-.55,.55-.55h0c.3,0,.55,.25,.55,.55h0v12.86c0,1.5,1.21,2.71,2.71,2.72h123.44c1.5,0,2.71-1.21,2.71-2.71,0,0,0,0,0-.01h0V4.6c0-1.5-1.21-2.71-2.71-2.71H40.29c-.29-.06-.48-.32-.45-.61,0-.3,.25-.55,.55-.55h94.15c2.12,.03,3.84,1.75,3.87,3.87V85.43c-.17,2.02-1.85,3.57-3.87,3.59Z"/>
        <path class="cls-3" d="M7.84,53.48c-.3,0-.55-.24-.56-.54,0,0,0,0,0-.01h0V4.6c0-2.12,1.7-3.84,3.82-3.87h10c.3-.02,.57,.2,.6,.5v.05c.03,.3-.18,.57-.48,.61,0,0-.01,0-.02,0H11.2c-1.5,0-2.71,1.21-2.71,2.71h0V52.88c.03,.3-.19,.57-.5,.6,0,0,0,0,0,0h-.15Z"/>
        <path class="cls-3" d="M7.84,66.79c-.3,.01-.55-.22-.56-.52,0-.01,0-.02,0-.03h0v-7.63c0-.3,.24-.55,.54-.56,0,0,0,0,.01,0,.31,0,.55,.25,.55,.56v7.58c.03,.3-.19,.57-.5,.6,0,0,0,0,0,0h-.04Z"/>
        <rect class="cls-5" x="14.52" y="7.26" width="117.36" height="75.26"/>
        <rect class="cls-13" x="14.52" y="7.26" width="117.36" height="3.16"/>
        <path class="cls-15" d="M93.14,53.93H23.14c-.4,0-.3-.4-.3-.8l-.45-39H93.17l-.03,39.8Z"/>
        <polygon class="cls-9" points="93.14 53.93 23.11 53.98 22.91 51.62 93.14 51.52 93.14 53.93"/>
        <polygon class="cls-9" points="93.14 15.95 23.11 16 22.91 14.05 93.14 13.99 93.14 15.95"/>
        <rect class="cls-14" x="101.53" y="13.59" width="14.52" height="8.94"/>
        <rect class="cls-14" x="101.53" y="35.95" width="14.52" height="8.94"/>
        <rect class="cls-14" x="101.53" y="56.65" width="14.52" height="8.94"/>
        <path class="cls-3" d="M121.07,25.65h-19.74c-.19,.02-.36-.12-.38-.32,0,0,0,0,0,0-.02-.06-.02-.12,0-.18,.11-.06,.24-.06,.35,0h19.74c.21,.02,.36,.19,.36,.4-.09,.09-.21,.12-.33,.1Z"/>
        <path class="cls-3" d="M111.48,27.81h-10c-.19,0-.35-.16-.35-.35h0c0-.19,.16-.35,.35-.35h10c.19,0,.35,.16,.35,.35h0c0,.19-.16,.35-.35,.35h0Z"/>
        <path class="cls-3" d="M43.2,59.41H23.41c-.19,0-.35-.16-.35-.35h0c0-.19,.16-.35,.35-.35h19.79c.19,0,.35,.16,.35,.35h0c0,.19-.16,.35-.35,.35h0Z"/>
        <path class="cls-3" d="M59.13,63.28H23.41c-.19,0-.35-.16-.35-.35h0c0-.2,.15-.38,.35-.41H59.13c.2,.03,.35,.21,.35,.41,0,.19-.16,.35-.35,.35h0Z"/>
        <path class="cls-3" d="M59.13,67.15H23.41c-.2-.03-.35-.21-.35-.41,0-.19,.16-.35,.35-.35H59.13c.19,0,.35,.16,.35,.35h0c0,.2-.15,.38-.35,.41Z"/>
        <path class="cls-3" d="M115.85,22.89h-14.52c-.19,0-.35-.16-.35-.35h0V13.59c0-.19,.16-.35,.35-.35h14.52c.19,0,.35,.16,.35,.35h0v9c-.03,.17-.17,.3-.35,.3Zm-14.17-.71h13.82V13.94h-13.82v8.24Z"/>
        <path class="cls-3" d="M115.85,45.24h-14.52c-.19,0-.35-.16-.35-.35h0v-8.94c0-.19,.16-.35,.35-.35h14.52c.19,0,.35,.16,.35,.35h0v8.94c0,.19-.16,.35-.35,.35h0Zm-14.17-.7h13.82v-8.24h-13.82v8.24Z"/>
        <path class="cls-3" d="M115.85,65.94h-14.52c-.2-.03-.35-.2-.35-.4v-8.89c0-.2,.15-.38,.35-.41h14.52c.2,.03,.35,.21,.35,.41v8.69c.11,.19,.05,.44-.14,.55,0,0,0,0,0,0-.06,.03-.13,.05-.2,.05Zm-14.17-.6h13.82v-8.32h-13.82v8.32Z"/>
        <polygon class="cls-14" points="66.67 34.44 59.58 38.51 52.5 42.58 52.5 34.44 52.5 26.3 59.58 30.37 66.67 34.44"/>
        <polygon class="cls-5" points="110.93 18.16 108.92 19.32 106.96 20.48 106.96 18.16 106.96 15.85 108.92 17.01 110.93 18.16"/>
        <polygon class="cls-5" points="110.93 40.37 108.92 41.53 106.96 42.68 106.96 40.37 106.96 38.06 108.92 39.21 110.93 40.37"/>
        <polygon class="cls-5" points="110.93 61.37 108.92 62.53 106.96 63.68 106.96 61.37 106.96 59.06 108.92 60.21 110.93 61.37"/>
        <path class="cls-3" d="M52.2,42.68h0c-.06-.09-.06-.21,0-.3V26.02c-.07-.09-.07-.21,0-.3m.35,0l14.12,8.14c.04,.1,.04,.2,0,.3,.04,.1,.04,.2,0,.3l-14.27,8.17,.15-16.91Zm.05,.9v15.06l13-7.54-13-7.52Z"/>
        <rect class="cls-8" x="4.67" y="94.68" width="140.82" height="9.8" rx=".8" ry=".8"/>
        <path class="cls-3" d="M144.64,104.47H5.48c-.77-.02-1.38-.63-1.41-1.4v-8.19c.03-.77,.64-1.38,1.41-1.41H144.64c.77,0,1.4,.64,1.4,1.41v8.19c0,.77-.63,1.4-1.4,1.4ZM5.48,94.68h0v8.19H144.64v-8h0l-139.16-.19Z"/>
        <rect class="cls-8" x="6.03" y="94.68" width="140.82" height="9.8" rx=".8" ry=".8"/>
        <path class="cls-3" d="M145.99,104.47H6.83c-.77,0-1.4-.63-1.4-1.4h0v-8.19c0-.77,.63-1.4,1.4-1.41H145.99c.78,0,1.41,.63,1.41,1.41h0v8.19c0,.77-.64,1.4-1.41,1.4ZM6.83,94.68h0v8.19H145.99v-8h0l-139.16-.19Z"/>
        <path class="cls-5" d="M22.41,99.25h-6.53c-.28,0-.5-.22-.51-.5h0c.03-.27,.24-.48,.51-.51h6.53c.27,.03,.48,.24,.5,.51,0,.27-.23,.49-.5,.5Z"/>
        <circle class="cls-5" cx="12.41" cy="98.75" r="1.16"/>
        <rect class="cls-18" x=".6" y="94.68" width="140.82" height="9.24" rx=".8" ry=".8"/>
        <rect class="cls-13" x=".6" y="99.55" width="140.82" height="4.02" rx=".5" ry=".5"/>
        <path class="cls-3" d="M140.62,104.47H1.41c-.77-.02-1.38-.63-1.41-1.4v-8.19c.03-.77,.64-1.38,1.41-1.41H140.62c.76,.03,1.35,.65,1.35,1.41v8.19c0,.75-.6,1.37-1.35,1.4ZM1.41,94.68h0v8.19H140.62v-8h0l-139.21-.19Z"/>
        <path class="cls-5" d="M17.2,99.25h-6.5c-.28,0-.5-.22-.5-.5h0c.02-.27,.23-.48,.5-.51h6.5c.28,0,.5,.22,.5,.5,0,0,0,0,0,.01h0c.03,.25-.14,.47-.39,.5h-.11Z"/>
        <circle class="cls-5" cx="7.24" cy="98.75" r="1.16"/>
        <rect class="cls-1" x="15.07" y="71.12" width="116.6" height="11.45"/>
        <rect class="cls-12" x="15.07" y="82.07" width="116.6" height=".45"/>
        <path class="cls-3" d="M131.52,71.32H15.27c-.2-.03-.33-.22-.3-.41,.03-.15,.14-.27,.3-.3h116.25c.2-.03,.38,.1,.41,.3s-.1,.38-.3,.41c-.04,0-.08,0-.12,0Z"/>
        <path class="cls-3" d="M14.72,44.09c-.31,0-.55-.25-.55-.56v-11.51c.04-.32,.33-.54,.65-.5,.26,.03,.46,.24,.5,.5v11.51c0,.3-.24,.55-.54,.56,0,0,0,0-.01,0h-.05Z"/>
        <path class="cls-3" d="M131.88,83.07H14.72c-.3,0-.55-.25-.55-.55h0V48.76c.03-.32,.31-.56,.62-.53,.26,.02,.48,.22,.53,.48v33.31h116V7.82H15.12V27.56c.02,.27-.15,.51-.4,.6-.3,0-.55-.25-.55-.55h0V7.46c-.11-.28,.03-.6,.31-.71,.08-.02,.16-.02,.24,0h117.16c.3,0,.55,.25,.55,.55h0V82.62c-.04,.27-.28,.46-.55,.45Z"/>
        <polygon class="cls-6" points="142.38 56.04 144.49 49.86 149.66 53.23 143.48 37.05 136.2 39.87 142.38 56.04"/>
        <polygon class="cls-2" points="138.56 45.95 142.58 45.54 145.99 43.64 143.48 37.05 136.2 39.87 138.56 45.95"/>
        <path class="cls-3" d="M142.43,56.45c-.19,0-.35-.13-.41-.31l-6.18-15.92c-.13-.14-.13-.36,0-.5h0l7.49-3c.14-.14,.36-.14,.49,0,0,0,0,0,0,0h0l6.23,16.18c.09,.14,.09,.31,0,.45-.13,.11-.32,.11-.45,0l-5-3.06-1.91,5.62c-.07,.15-.2,.26-.36,.3l.09,.24Zm-5.73-16.23l5.67,14.8,1.71-5c-.02-.09-.02-.17,0-.26,.11-.07,.24-.07,.35,0l4.17,2.67-5.4-14.87-6.5,2.66Z"/>
        <polygon class="cls-6" points="132.88 56.04 130.87 50.42 125.6 53.23 131.83 37.05 139.11 39.87 132.88 56.04"/>
        <polygon class="cls-2" points="136.9 45.54 132.73 45.39 129.51 43.03 131.83 37.05 139.11 39.87 136.9 45.54"/>
        <path class="cls-3" d="M132.88,56.45h0c-.16-.03-.3-.15-.35-.31l-1.86-5-5,2.56c-.14,.1-.32,.1-.46,0-.07-.14-.07-.31,0-.45l1.16-3.06c.16-.13,.39-.13,.55,0,.13,.14,.13,.35,0,.49h0l-.8,2.06,4.32-2.31c.11-.05,.24-.05,.35,0h0l1.69,4.59,6.13-14.82-6.58-2.51-2.47,6.58c-.16,.12-.39,.12-.55,0-.14-.14-.14-.36,0-.49,0,0,0,0,0,0h0l2.61-6.94c.09-.02,.17-.02,.26,0h.3l7.28,2.77c.13,.14,.13,.35,0,.49h0l-6.18,16c-.04,.2-.2,.34-.4,.36Z"/>
        <path class="cls-3" d="M127.55,48.56h0c-.13-.14-.13-.36,0-.5h0l.86-2.26c.14-.14,.36-.14,.49,0,0,0,0,0,0,0h0c.21,.07,.32,.28,.25,.49,0,0,0,0,0,.01l-.9,2.21c-.09,.2-.33,.29-.53,.2,0,0,0,0,0,0-.07-.04-.13-.09-.18-.15Z"/>
        <path class="cls-2" d="M139.51,43.64h0c-5.53,0-10.02-4.47-10.05-10h0c.03-5.53,4.52-10,10.05-10h0c5.55,0,10.05,4.5,10.05,10.05h0c-.05,5.51-4.54,9.95-10.05,9.95Z"/>
        <path class="cls-3" d="M139.51,44.02c-5.94-.06-10.7-4.91-10.65-10.85,.06-5.94,4.91-10.7,10.85-10.65,5.94,.06,10.7,4.91,10.65,10.85-.05,5.86-4.79,10.6-10.65,10.65h-.2Zm0-20.45c-5.55,0-10.05,4.5-10.05,10.05,0,5.55,4.5,10.05,10.05,10.05,5.55,0,10.05-4.5,10.05-10.05,0-.02,0-.03,0-.05v-.24c-.17-5.43-4.62-9.74-10.05-9.74v-.02Z"/>
        <path class="cls-6" d="M137.25,43.64h0c-5.53,0-10.02-4.47-10.05-10h0c.03-5.53,4.52-10,10.05-10h0c5.51,0,10,4.44,10.05,9.95h0c0,5.55-4.5,10.05-10.05,10.05h0Z"/>
        <path class="cls-3" d="M136.9,44.02c-5.86-.03-10.6-4.79-10.6-10.65,0-1.31,.24-2.6,.7-3.82,.1-.2,.35-.29,.55-.19,.18,.09,.27,.29,.21,.49-.45,1.12-.67,2.31-.66,3.52-.04,5.52,4.4,10.04,9.92,10.08s10.04-4.4,10.08-9.92c.04-5.52-4.4-10.04-9.92-10.08-3.26-.03-6.33,1.54-8.22,4.19-.16,.13-.39,.13-.55,0-.15-.16-.15-.41,0-.57h0c2.02-2.73,5.2-4.35,8.59-4.37,5.87-.4,10.95,4.03,11.35,9.9,.4,5.87-4.03,10.95-9.89,11.35-.49,.03-.97,.03-1.46,0l-.1,.07Z"/>
        <path class="cls-5" d="M129.72,29.22h0c-.15-.16-.15-.4,0-.56,.59-.95,1.35-1.76,2.26-2.41,.16-.12,.39-.12,.55,0,.15,.12,.18,.34,.06,.5l-.06,.06c-.8,.59-1.48,1.32-2,2.16,.06,.22-.06,.45-.28,.52-.22,.07-.45-.05-.52-.26,0,0,0,0,0,0h-.01Z"/>
        <circle class="cls-5" cx="132.83" cy="25.95" r=".4"/>
        <path class="cls-5" d="M162.47,26.3h0c-.92-.65-1.69-1.49-2.27-2.46v-.55c.15-.15,.4-.15,.55,0,.51,.87,1.19,1.62,2,2.21,.15,.27,.05,.61-.22,.76-.03,.01-.05,.03-.08,.04h.02Z"/>
        <circle class="cls-5" cx="159.86" cy="22.59" r=".4"/>
        <circle class="cls-5" cx="130.27" cy="44.99" r=".4"/>
        <path class="cls-5" d="M129.31,47.96h0c-.19-.09-.29-.3-.25-.51l.55-1.55c.16-.15,.4-.15,.56,0,.14,.13,.14,.35,0,.48,0,0,0,0,0,0h0l-.56,1.51c-.09,.06-.2,.08-.3,.06Z"/>
        <path class="cls-3" d="M35.62,1.79h-10c-.31,0-.55-.25-.55-.56,0-.3,.25-.55,.55-.55h10.1c.3-.02,.57,.2,.6,.5v.05c0,.31-.23,.56-.54,.57h-.16Z"/>
        <path class="cls-3" d="M10.2,9.22h0c-.17,.07-.37-.01-.44-.18,0,0,0-.01,0-.02-.03-.08-.03-.17,0-.25h0l1.1-5s0-.31,.4,0c.17-.01,.31,.11,.32,.28,0,0,0,0,0,0,0,.04,0,.08,0,.12l-1.11,5c-.07,.06-.17,.08-.26,.05Z"/>
        <path class="cls-3" d="M12.36,6.36h0c-.2-.05-.33-.25-.3-.45h0l.45-2.77c.08-.2,.31-.31,.52-.23,.11,.04,.19,.12,.23,.23l-.6,2.77c.08,.14,.04,.32-.1,.41-.06,.03-.13,.05-.2,.04Z"/>
        <path class="cls-3" d="M25.47,79.2c-1.35,.51-2.86-.16-3.37-1.51-.51-1.35,.16-2.86,1.51-3.37,.14-.05,.29-.1,.43-.12,.47-.13,.96-.13,1.43,0,1.38,.41,2.16,1.87,1.75,3.25-.25,.84-.91,1.5-1.75,1.75Zm0-4.52c-1.05,0-1.91,.86-1.91,1.91,0,1.05,.86,1.91,1.91,1.91s1.91-.86,1.91-1.91c0-1.05-.86-1.9-1.91-1.91Z"/>
        <ellipse class="cls-5" cx="137" cy="33.69" rx="6.38" ry="6.18"/>
        <path class="cls-3" d="M77.82,99.65h-20.1c-.19,0-.35-.16-.35-.35h0c0-.19,.16-.35,.35-.35h20.1c.19,0,.35,.16,.35,.35s-.16,.35-.35,.35h0Z"/>
        <path class="cls-3" d="M69.68,4.4h-3.67c-.19,0-.35-.16-.35-.35h0c0-.19,.16-.35,.35-.35h3.67c.19,0,.34,.14,.35,.33,0,0,0,.01,0,.02,0,.19-.16,.35-.35,.35h0Z"/>
        <path class="cls-3" d="M64.05,4.4h-7.13c-.2,0-.37-.15-.4-.35,.02-.2,.2-.36,.4-.35h7.13c.19,0,.35,.15,.36,.34,0,0,0,0,0,.01,0,.19-.17,.35-.36,.35Z"/>
        <path class="cls-3" d="M36.62,85.89h-3.71c-.19,0-.35-.17-.35-.36,0-.19,.16-.35,.35-.35h3.71c.19,0,.34,.14,.35,.33,0,0,0,.01,0,.02,0,.19-.16,.35-.35,.36Z"/>
        <path class="cls-3" d="M31,85.89h-7.19c-.2-.03-.33-.22-.3-.41,.03-.15,.14-.27,.3-.3h7.19c.19,0,.35,.16,.35,.35h0c0,.19-.16,.35-.35,.36Z"/>
        <path class="cls-3" d="M125.2,5.02h-3.71c-.19,0-.35-.16-.35-.35,0-.19,.16-.35,.35-.35h3.71c.19,0,.35,.16,.35,.35,0,.19-.16,.35-.35,.35h0Z"/>
        <path class="cls-3" d="M119.52,5.02h-7.14c-.19,0-.35-.16-.35-.35,0-.19,.16-.35,.35-.35h7.14c.2,0,.37,.15,.4,.35-.03,.2-.2,.35-.4,.35Z"/>
        <path class="cls-3" d="M188.54,95.48c-.15,0-.28-.1-.3-.25v-1.61c.03-.14,.15-.25,.3-.25,.05,.08,.05,.17,0,.25v1.61c.05,.08,.05,.17,0,.25Z"/>
        <path class="cls-3" d="M188.54,100.5c-.17,0-.3-.13-.3-.3h0v-3.71c.02-.15,.15-.26,.3-.26,.05,.08,.05,.18,0,.26v4h0Z"/>
        <path class="cls-3" d="M121.07,48.11h-19.74c-.2-.03-.35-.21-.35-.41,0-.19,.16-.35,.35-.35h19.74c.19,0,.35,.16,.36,.35,0,.21-.15,.38-.36,.41Z"/>
        <path class="cls-3" d="M111.48,50.27h-10c-.2-.03-.33-.22-.3-.41,.03-.15,.14-.27,.3-.3h10c.2,.03,.33,.22,.3,.41-.03,.15-.14,.27-.3,.3Z"/>
        <rect class="cls-9" x="23.21" y="15.8" width="1.81" height="36.52"/>
        <rect class="cls-9" x="91.33" y="15.8" width="1.81" height="36.52"/>
        <path class="cls-3" d="M93.2,54.44H23.91c-.75,.02-1.37-.57-1.4-1.31V14.8c0-.53,.42-.97,.95-1h10.05c.19,0,.35,.17,.35,.36,0,.2-.15,.37-.35,.4h-10.05V52.88c0,.36,.29,.65,.65,.65,0,0,0,0,.01,0H93.2V14.7H38.73c-.21-.02-.38-.19-.4-.4,.02-.2,.2-.36,.4-.36h54.47c.45,.03,.81,.41,.81,.86V53.73c-.05,.41-.4,.71-.81,.71Z"/>
        <circle class="cls-9" cx="80.28" cy="50.07" r="1.91"/>
        <circle class="cls-9" cx="75.86" cy="49.61" r=".5"/>
        <circle class="cls-9" cx="72.9" cy="51.22" r=".75"/>
        <circle class="cls-9" cx="86.26" cy="50.67" r="1.05"/>
        <circle class="cls-9" cx="83.6" cy="48.81" r=".45"/>
        <circle class="cls-9" cx="69.13" cy="51.52" r="1.26"/>
        <circle class="cls-9" cx="73.75" cy="48.76" r=".85"/>
        <circle class="cls-13" cx="127" cy="98.49" r="1.91"/>
        <circle class="cls-13" cx="122.63" cy="97.64" r=".5"/>
        <circle class="cls-13" cx="119.52" cy="99" r=".75"/>
        <circle class="cls-13" cx="132.93" cy="99.6" r="1.05"/>
        <circle class="cls-13" cx="130.42" cy="97.54" r=".45"/>
        <circle class="cls-13" cx="115.8" cy="99" r="1.26"/>
        <circle class="cls-13" cx="120.57" cy="96.64" r=".85"/>
        <path class="cls-3" d="M66.2,76.89H30.5c-.19,0-.35-.15-.36-.34,0,0,0,0,0-.01,0-.19,.17-.35,.36-.35h35.7c.19,0,.35,.16,.36,.35,0,.19-.16,.35-.35,.35,0,0,0,0-.01,0Z"/>
        <path class="cls-3" d="M108.77,76.89h-35.72c-.19,0-.34-.14-.35-.33,0,0,0-.01,0-.02,0-.19,.16-.35,.35-.35h35.72c.19,0,.35,.16,.35,.35h0c0,.19-.16,.35-.35,.35h0Z"/>
        <path class="cls-3" d="M190.2,104.02h-20.9c-.2,0-.37-.15-.4-.35v-12.46c0-.22,.18-.4,.4-.4h20.9c.19-.03,.37,.1,.4,.29,0,.04,0,.07,0,.11v12.41c0,.19-.14,.34-.33,.35,0,0,0,0-.01,0l-.06,.05Zm-20.5-.75h20.1v-11.71h-20.1v11.71Z"/>
      </g>
    </g>
  </g>
</svg>